<svg width="120" height="121" viewBox="0 0 120 121" fill="none" xmlns="http://www.w3.org/2000/svg">
<path d="M75.5292 2.52914L60.0265 60.4307L96.5258 12.8835L60.0452 60.4452L111.961 30.4847L60.0568 60.4653L119.487 52.653L60.06 60.4887L117.956 76.0138L60.054 60.5112L107.601 97.0105L60.0395 60.5298L89.9999 112.446L60.0194 60.5415L67.8317 119.971L59.996 60.5447L44.4709 118.44L59.9735 60.5387L23.4742 108.086L59.9549 60.5242L8.03854 90.4846L59.9432 60.504L0.513274 68.3164L59.94 60.4806L2.04447 44.9555L59.946 60.4582L12.3988 23.9589L59.9605 60.4395L30 8.52319L59.9807 60.4279L52.1683 0.99795L60.0041 60.4247L75.5292 2.52914Z" stroke="black" stroke-width="4"/>
</svg>
