<svg width="21" height="11" viewBox="0 0 21 11" fill="none" xmlns="http://www.w3.org/2000/svg">
<path d="M5.75 3.875H5.71875C5.71875 3.875 5.59375 4.53125 5.5 4.90625L5.15625 6.09375H6.3125L6 4.90625C5.875 4.53125 5.75 3.875 5.75 3.875ZM20 0.5H1.5C1.0625 0.5 0.75 0.84375 0.75 1.25V9.75C0.75 10.1875 1.0625 10.5 1.5 10.5H20C20.4062 10.5 20.75 10.1875 20.75 9.75V1.25C20.75 0.84375 20.4062 0.5 20 0.5ZM8.03125 8.5H7.3125C7.15625 8.5 7 8.40625 6.96875 8.25L6.65625 7.25H4.78125L4.5 8.25C4.46875 8.40625 4.3125 8.5 4.15625 8.5H3.4375C3.1875 8.5 3 8.25 3.09375 8.03125L4.875 2.78125C4.9375 2.625 5.0625 2.5 5.21875 2.5H6.25C6.40625 2.5 6.53125 2.625 6.59375 2.78125L8.375 8.03125C8.46875 8.25 8.28125 8.5 8.03125 8.5ZM19.5 9.25H10.75V1.75H19.5V9.25ZM12.375 4.625H15.8125C15.625 5.03125 15.3438 5.4375 15 5.84375C14.8125 5.59375 14.625 5.34375 14.4375 5.09375C14.3438 4.9375 14.125 4.875 13.9375 4.96875L13.5 5.25C13.3125 5.34375 13.2812 5.59375 13.4062 5.78125C13.5938 6.0625 13.8438 6.40625 14.125 6.71875C13.8438 6.96875 13.5312 7.1875 13.2188 7.375C13.0625 7.5 13 7.71875 13.0938 7.875L13.3438 8.3125C13.4688 8.5 13.6875 8.5625 13.875 8.4375C14.2812 8.21875 14.6562 7.90625 15 7.625C15.3438 7.90625 15.6875 8.1875 16.0938 8.4375C16.2812 8.5625 16.5 8.5 16.625 8.3125L16.875 7.875C16.9688 7.71875 16.9062 7.5 16.75 7.375C16.4688 7.1875 16.1875 6.96875 15.9062 6.71875C15.9375 6.6875 16 6.625 16.0312 6.5625C16.5625 5.9375 16.9688 5.28125 17.1875 4.625H17.625C17.8125 4.625 18 4.46875 18 4.25V3.75C18 3.5625 17.8125 3.375 17.625 3.375H15.625V2.875C15.625 2.6875 15.4375 2.5 15.25 2.5H14.75C14.5312 2.5 14.375 2.6875 14.375 2.875V3.375H12.375C12.1562 3.375 12 3.5625 12 3.75V4.25C12 4.46875 12.1562 4.625 12.375 4.625Z" fill="black"/>
</svg>
