<svg width="97" height="25" viewBox="0 0 97 25" fill="none" xmlns="http://www.w3.org/2000/svg">
<g clip-path="url(#clip0_65_2492)">
<mask id="mask0_65_2492" style="mask-type:luminance" maskUnits="userSpaceOnUse" x="0" y="0" width="97" height="25">
<path d="M96.7619 0H0V24.381H96.7619V0Z" fill="white"/>
</mask>
<g mask="url(#mask0_65_2492)">
<path d="M93.3567 24.381H50.0401C49.1374 24.3801 48.2717 24.0158 47.6333 23.3677C46.9949 22.7198 46.636 21.841 46.6351 20.9246V3.45637C46.6355 3.00209 46.724 2.55232 46.8957 2.13276C47.0673 1.71321 47.3187 1.33207 47.6354 1.01112C47.9521 0.690161 48.328 0.435675 48.7416 0.262188C49.1552 0.0887011 49.5986 -0.000390342 50.0461 1.28554e-06H93.3624C94.2653 0.00157946 95.1298 0.366335 95.768 1.01427C96.4056 1.66222 96.7645 2.54044 96.7651 3.45637V20.9246C96.7645 21.8415 96.405 22.7206 95.7654 23.3687C95.1266 24.017 94.2602 24.381 93.3567 24.381ZM50.0461 1.23261C49.4651 1.23301 48.9082 1.46743 48.4974 1.88437C48.0867 2.30132 47.8556 2.86671 47.8553 3.45637V20.9246C47.8556 21.5144 48.0867 22.08 48.4974 22.4971C48.908 22.9143 49.4649 23.1491 50.0461 23.1498H93.3624C93.9436 23.1491 94.5005 22.9143 94.9112 22.4971C95.322 22.08 95.5533 21.5144 95.5533 20.9246V3.45637C95.5533 3.1639 95.4963 2.87434 95.3854 2.60423C95.2752 2.33414 95.1131 2.08881 94.9093 1.88226C94.7055 1.67573 94.4633 1.51205 94.1967 1.40057C93.9302 1.2891 93.645 1.23203 93.3567 1.23261H50.0461Z" fill="#0030DB"/>
<path d="M14.3576 19.0778L8.26244 4.44002C8.17799 4.23055 8.03406 4.05134 7.84893 3.9252C7.66374 3.79906 7.44586 3.73169 7.22286 3.73169C6.99992 3.73169 6.78199 3.79906 6.59679 3.9252C6.41166 4.05134 6.26772 4.23055 6.18327 4.44002L0.0881096 19.0778C-0.0287203 19.3557 -0.0320098 19.6693 0.0789647 19.9498C0.18994 20.2301 0.406087 20.4541 0.679861 20.5728C0.953626 20.6914 1.2626 20.6947 1.53879 20.5821C1.81499 20.4694 2.03578 20.25 2.15263 19.9721L7.22286 7.78164L12.2931 19.9572C12.4099 20.2351 12.6308 20.4545 12.907 20.5671C13.1831 20.6798 13.4921 20.6763 13.7659 20.5579C14.0396 20.4393 14.2558 20.2152 14.3668 19.9347C14.4778 19.6545 14.4744 19.3408 14.3576 19.0629V19.0778Z" fill="#0030DB"/>
<path d="M37.9703 20.1212C38.004 20.065 38.0335 20.0062 38.0584 19.9453L44.1521 5.3135C44.2143 5.17519 44.2485 5.02563 44.2527 4.87367C44.2568 4.72173 44.2311 4.57045 44.1768 4.42881C44.1224 4.28716 44.0406 4.15801 43.9362 4.04901C43.8318 3.93999 43.707 3.85332 43.5691 3.79413C43.4312 3.73493 43.2828 3.70441 43.1331 3.70435C42.9833 3.70432 42.8351 3.73475 42.6972 3.79386C42.5591 3.85296 42.4342 3.93955 42.3298 4.04851C42.2254 4.15744 42.1436 4.28654 42.089 4.42816L37.0189 16.6023L31.9471 4.42518C31.8986 4.27586 31.8201 4.13837 31.7166 4.0214C31.613 3.90444 31.4867 3.81055 31.3455 3.74565C31.2044 3.68076 31.0515 3.64626 30.8968 3.64437C30.7418 3.64247 30.5882 3.6732 30.4456 3.73462C30.303 3.79603 30.1745 3.8868 30.0681 4.0012C29.9618 4.11558 29.8801 4.25111 29.828 4.3992C29.7759 4.5473 29.7547 4.70476 29.7657 4.8616C29.7764 5.01845 29.8194 5.17131 29.8915 5.31051L35.9748 19.9424C36.0526 20.1374 36.1818 20.3069 36.3482 20.4319C36.5149 20.5571 36.7122 20.6332 36.9186 20.6517C37.1252 20.6702 37.3326 20.6304 37.5181 20.5369C37.7036 20.4432 37.8602 20.2994 37.9703 20.1212Z" fill="#0030DB"/>
<path d="M22.344 20.6533H17.566C16.0814 20.5938 16.08 18.44 17.566 18.379H22.344C23.6172 18.3774 24.8378 17.8634 25.738 16.9498C26.6384 16.0361 27.1451 14.7974 27.147 13.5051V10.8805C27.1454 9.58789 26.6389 8.34876 25.7385 7.43486C24.8381 6.52089 23.6173 6.00672 22.344 6.00515H17.566C16.0844 5.94703 16.0771 3.79331 17.566 3.73071H22.344C24.2132 3.73071 26.006 4.48445 27.3279 5.82613C28.6495 7.16782 29.3922 8.98748 29.3922 10.8849V13.5051C29.3906 15.4015 28.6474 17.2197 27.3258 18.56C26.0041 19.9005 24.2123 20.6533 22.344 20.6533Z" fill="#0030DB"/>
<path d="M60.2586 12.4706C60.2158 12.4381 60.1809 12.396 60.1569 12.3475C60.1329 12.299 60.1206 12.2454 60.1206 12.1912C60.1206 12.1369 60.1329 12.0833 60.1569 12.0348C60.1809 11.9863 60.2158 11.9441 60.2586 11.9117C63.6079 9.3898 61.9794 3.77376 57.5596 3.72607H51.8859C51.7209 3.72607 51.5625 3.79264 51.4457 3.91116C51.329 4.02968 51.2633 4.19042 51.2633 4.35802V10.0456C51.2635 10.1797 51.3057 10.3102 51.3837 10.4182L52.6583 12.1904L51.3837 13.9626C51.3059 14.0707 51.2637 14.2011 51.2633 14.3352V20.0214C51.2633 20.1042 51.2795 20.1865 51.3108 20.2631C51.342 20.3399 51.3879 20.4093 51.4457 20.4682C51.5036 20.5268 51.5722 20.5733 51.6478 20.6051C51.7231 20.6369 51.8041 20.6532 51.8859 20.6532H57.5596C61.978 20.607 63.6094 14.988 60.2586 12.4706ZM57.5596 19.3893H52.5086V14.5408L53.9313 12.5645C54.009 12.4556 54.0505 12.3247 54.0503 12.1904C54.0508 12.0565 54.0092 11.926 53.9313 11.8178L52.5086 9.83693V4.99146H57.5596C61.8665 5.17181 61.865 11.3781 57.5596 11.5584H55.6317C55.4717 11.5663 55.3207 11.6364 55.2102 11.7542C55.0996 11.872 55.0379 12.0285 55.0379 12.1912C55.0379 12.3538 55.0996 12.5102 55.2102 12.628C55.3207 12.7458 55.4717 12.816 55.6317 12.8239H57.5596C61.8708 13.0027 61.8723 19.2104 57.5596 19.3893Z" fill="#0030DB"/>
<path d="M71.8967 20.6356C70.0953 20.6337 68.3684 19.9064 67.0951 18.6135C65.8212 17.3206 65.1047 15.5676 65.1028 13.7392V10.6092C65.4758 1.46229 78.3182 1.46229 78.6905 10.6092V13.7392C78.6886 15.5676 77.9721 17.3206 76.6989 18.6135C75.4249 19.9064 73.698 20.6337 71.8967 20.6356ZM71.8967 4.9738C70.4254 4.9754 69.0149 5.56932 67.9749 6.62526C66.9342 7.68121 66.3492 9.11295 66.3479 10.6063V13.7362C66.6516 21.2079 77.1417 21.2079 77.4454 13.7362V10.6063C77.4441 9.11295 76.8591 7.68121 75.8184 6.62526C74.7784 5.56932 73.3679 4.9754 71.8967 4.9738Z" fill="#0030DB"/>
<path d="M87.1338 12.3827C87.0973 12.3254 87.078 12.2587 87.078 12.1904C87.078 12.1222 87.0973 12.0554 87.1338 11.9982L91.8328 4.70536C91.9232 4.56502 91.9546 4.39401 91.9206 4.22993C91.8873 4.06585 91.7905 3.92216 91.6521 3.83044C91.5137 3.73875 91.3452 3.70654 91.1837 3.74091C91.0222 3.7753 90.8806 3.87345 90.7902 4.01379L86.5571 10.5823C86.5257 10.6331 86.4827 10.6751 86.4315 10.7042C86.3802 10.7333 86.3219 10.7486 86.2629 10.7486C86.2046 10.7486 86.1463 10.7333 86.095 10.7042C86.0438 10.6751 86.0002 10.6331 85.9694 10.5823L81.7497 4.01379C81.7036 3.94253 81.6446 3.88137 81.5748 3.83395C81.5056 3.78656 81.4274 3.75386 81.3447 3.73786C81.2627 3.72185 81.1781 3.72287 81.0961 3.74082C81.0141 3.75879 80.9365 3.79332 80.8686 3.84238C80.736 3.9422 80.6469 4.09007 80.6193 4.25507C80.5924 4.42006 80.629 4.58942 80.7219 4.72771L85.3998 11.9982C85.4363 12.0554 85.4562 12.1222 85.4562 12.1904C85.4562 12.2587 85.4363 12.3254 85.3998 12.3827L80.7014 19.6771C80.6168 19.8173 80.5892 19.9854 80.6251 20.1457C80.661 20.306 80.7565 20.4459 80.8923 20.5357C81.0282 20.6254 81.1929 20.6581 81.3518 20.6266C81.5107 20.5951 81.651 20.5021 81.7433 20.367L85.9707 13.7971C86.0021 13.7463 86.0451 13.7043 86.0963 13.6752C86.1476 13.6461 86.2059 13.6308 86.2649 13.6308C86.3238 13.6308 86.3815 13.6461 86.4327 13.6752C86.484 13.7043 86.5276 13.7463 86.5583 13.7971L90.7858 20.367C90.878 20.5021 91.019 20.5951 91.1779 20.6266C91.3368 20.6581 91.5015 20.6254 91.6367 20.5357C91.7726 20.4459 91.8687 20.306 91.904 20.1457C91.9399 19.9854 91.9123 19.8173 91.8283 19.6771L87.1338 12.3827Z" fill="#0030DB"/>
</g>
</g>
<defs>
<clipPath id="clip0_65_2492">
<rect width="96.7619" height="24.381" fill="white"/>
</clipPath>
</defs>
</svg>
