<svg width="155" height="24" viewBox="0 0 155 24" fill="none" xmlns="http://www.w3.org/2000/svg">
<path fill-rule="evenodd" clip-rule="evenodd" d="M45.3338 3.37769C46.5492 3.37769 47.5823 4.29073 47.5823 5.38638C47.5823 6.48203 46.5492 7.39508 45.3338 7.39508C44.1185 7.39508 43.0854 6.48203 43.0854 5.38638C43.0854 4.22986 44.1185 3.37769 45.3338 3.37769Z" fill="#1A171B"/>
<path fill-rule="evenodd" clip-rule="evenodd" d="M47.2785 23.4645H43.3892V9.16016H47.2785V23.4645Z" fill="#1A171B"/>
<path fill-rule="evenodd" clip-rule="evenodd" d="M50.3777 23.4646V11.5341V11.4124V11.2907V11.2298L50.4385 11.108V11.0472V10.9254V10.8646V10.7428L50.4992 10.6211V10.5602V10.4993L50.56 10.3776V10.3167V10.2559L50.6208 10.1341V10.0733L50.6815 9.95152V9.89065L50.7423 9.82978L50.8031 9.76891V9.70804L50.8638 9.5863L50.9246 9.52543L50.9854 9.46457L51.0462 9.34283L51.1677 9.28196L51.2285 9.22109L51.2892 9.16022L51.4108 9.09935L51.4715 9.03848L51.5931 8.97761L51.7146 8.91674L51.8362 8.85587H51.9577H52.0185L52.14 8.795H52.2008H52.3223L52.3831 8.73413H52.5046H52.5654H52.7477H52.8085H52.93H52.9908H53.1123H53.1731L53.2946 8.795H53.4162H53.4769H53.5985L53.6592 8.85587H53.72L53.8415 8.91674H53.9631L54.0238 8.97761H54.1454L54.2062 9.03848L54.3277 9.09935L54.4492 9.16022L54.5708 9.22109L54.7531 9.34283L54.9354 9.46457L55.1785 9.70804L55.3608 9.89065L55.5431 10.0124L55.7254 10.2559L55.8469 10.4385L56.09 10.682L56.2115 10.9254L56.5154 11.2907L56.6369 11.595L60.4654 17.6211H60.5262H60.5869V17.5602V17.4993V9.16022H62.4708V21.5167V21.8211V22.2472V22.4298V22.5515V22.7341L62.41 22.8559V22.9167V22.9776V23.0385L62.3492 23.1602V23.2211L62.2885 23.3428V23.4037L62.2277 23.4646V23.5254L62.1669 23.5863H62.1062L62.0454 23.6472V23.708H61.9846L61.9238 23.7689H61.8631L61.8023 23.8298H61.7415L61.6808 23.8907H61.62H61.4985H61.4377L61.3769 23.9515H61.2554H61.1338H61.0123L60.8908 23.8907H60.83H60.7692H60.6477L60.5869 23.8298H60.4654L60.4046 23.7689L60.3438 23.708H60.2223L60.1615 23.6472L60.1008 23.5863L60.04 23.5254L59.9792 23.4646L59.9185 23.3428L59.8577 23.282L59.7969 23.2211L59.7362 23.1602L59.5538 22.9167L59.4931 22.795L52.4438 11.9602H52.3831V11.8993H52.3223V11.9602H52.2615V12.0211V23.4646H50.3777Z" fill="#1A171B"/>
<path fill-rule="evenodd" clip-rule="evenodd" d="M115.887 23.4646V11.5341V11.4124L115.948 11.2907V11.2298V11.108V11.0472V10.9254V10.8646L116.008 10.7428V10.6211V10.5602V10.4993L116.069 10.3776V10.3167L116.13 10.195V10.1341L116.191 10.0733V9.95152L116.252 9.89065V9.82978L116.312 9.76891V9.70804L116.373 9.5863L116.434 9.52543L116.495 9.46457L116.616 9.34283L116.677 9.28196L116.738 9.22109L116.859 9.16022L116.92 9.09935L117.042 9.03848L117.102 8.97761L117.224 8.91674L117.345 8.85587H117.467H117.528L117.649 8.795H117.71H117.832L117.892 8.73413H118.014H118.135H118.257H118.318H118.439H118.5H118.622H118.682L118.804 8.795H118.925H119.047H119.108L119.168 8.85587H119.29L119.351 8.91674H119.472L119.594 8.97761H119.655L119.715 9.03848H119.776L119.837 9.09935L119.958 9.16022L120.08 9.22109L120.262 9.34283L120.445 9.46457L120.688 9.70804L120.87 9.89065L121.052 10.0124L121.235 10.2559L121.417 10.4385L121.599 10.682L121.782 10.9254L122.025 11.2907L122.146 11.595L125.975 17.6211H126.035H126.096V17.5602V17.4993V9.16022H128.041V21.5167V21.8211V22.2472L127.98 22.4298V22.5515V22.7341V22.8559V22.9167L127.919 22.9776V23.0385L127.858 23.1602V23.2211L127.798 23.3428V23.4037L127.737 23.4646V23.5254L127.676 23.5863H127.615L127.555 23.6472V23.708H127.494L127.433 23.7689H127.372L127.312 23.8298H127.251L127.19 23.8907H127.129H127.068H126.947H126.886L126.765 23.9515H126.643H126.522L126.461 23.8907H126.339H126.278H126.157L126.096 23.8298H126.035L125.914 23.7689L125.853 23.708H125.792L125.732 23.6472L125.61 23.5863L125.549 23.5254L125.488 23.4037L125.428 23.3428L125.367 23.282L125.306 23.2211L125.245 23.1602L125.124 22.9167L125.002 22.795L117.953 11.9602H117.892V11.8993H117.832V11.9602V12.0211V23.4646H115.887Z" fill="#1A171B"/>
<path fill-rule="evenodd" clip-rule="evenodd" d="M65.6308 23.4647V0.334229H69.52V14.8212H75.05V9.16032H78.8785V23.4647H75.05V16.4647H69.52V23.4647H65.6308Z" fill="#1A171B"/>
<path fill-rule="evenodd" clip-rule="evenodd" d="M95.59 0.334229H99.4792V20.8473V20.969V21.1516L99.54 21.3951L99.6008 21.5168L99.6615 21.6386L99.7831 21.6994L99.9654 21.7603L100.148 21.8212H100.452L100.695 21.8821H102.153V23.4647H98.0815H97.96H97.8385H97.7169H97.6562L97.5346 23.4038H97.4131H97.3523H97.2308H97.17L97.0485 23.3429H96.9877L96.8662 23.2821L96.6839 23.2212H96.6231L96.5623 23.1603H96.5015L96.38 23.0994L96.3192 23.0386L96.2585 22.9777L96.1977 22.9168L96.1369 22.856L96.0762 22.7951L96.0154 22.7342L95.9546 22.6734V22.6125L95.8939 22.5516V22.4907L95.8331 22.369V22.3081L95.7723 22.1864L95.7115 22.0647V22.0038V21.8821L95.6508 21.7603V21.6386V21.5777V21.456L95.59 21.3342V21.2125V21.0907V20.969V20.8473V0.334229Z" fill="#1A171B"/>
<path fill-rule="evenodd" clip-rule="evenodd" d="M114.003 23.4645V21.8819H108.23H108.169H108.108L107.987 21.821H107.926H107.805H107.683H107.562L107.501 21.7602H107.379H107.318L107.258 21.6993H107.197H107.136V21.6384H107.075V21.5775L107.015 21.5167V21.4558L106.954 21.3949V21.2732V21.2123L106.893 21.1515V21.0906V16.7689H112.545V15.0036H106.893V11.6558V11.5949V11.4732L106.954 11.4123V11.3515V11.2297L107.015 11.1689V11.108L107.075 11.0471L107.136 10.9862V10.9254H107.197L107.318 10.8645H107.379H107.44L107.562 10.8036H107.622H107.683H107.744H107.865L107.987 10.7428H108.108H113.821V9.16016H105.982H105.86H105.678H105.495H105.374L105.192 9.22102H105.009H104.888H104.766L104.584 9.28189H104.462L104.28 9.34276L104.098 9.40363L103.976 9.4645L103.915 9.52537L103.794 9.58624L103.733 9.64711L103.612 9.70798L103.551 9.82972L103.49 9.89059L103.429 10.0123L103.368 10.0732L103.308 10.1949L103.247 10.3167L103.186 10.4384L103.125 10.621V10.7428V10.8645L103.065 10.9862V11.108V11.2906V11.4123V11.5949L103.004 11.8384V20.8471L103.065 21.2123V21.4558V21.6384L103.125 21.8819L103.186 22.0645L103.247 22.2471L103.308 22.4297L103.368 22.6123L103.49 22.7949L103.612 22.9775L103.794 23.0993L104.037 23.221L104.219 23.2819L104.462 23.3428L104.645 23.4036H104.948L105.192 23.4645H105.435H114.003Z" fill="#1A171B"/>
<path fill-rule="evenodd" clip-rule="evenodd" d="M154.354 23.4645V21.8819H148.581L148.52 21.821H148.459H148.338H148.277H148.155H148.034H147.912L147.852 21.7602H147.73H147.669L147.608 21.6993H147.548L147.487 21.6384H147.426V21.5775L147.365 21.5167V21.4558L147.305 21.3949V21.2732V21.2123L147.244 21.1515V21.0906V16.7689H152.895L152.956 15.0036H147.244V11.6558V11.5949V11.4732L147.305 11.4123V11.3515V11.2297L147.365 11.1689V11.108L147.426 11.0471L147.487 10.9862V10.9254H147.548L147.669 10.8645H147.73H147.852L147.912 10.8036H147.973H148.034H148.095H148.216L148.338 10.7428H148.459H154.172V9.16016H146.332H146.211H146.028H145.846H145.725L145.542 9.22102H145.36H145.238H145.117L144.935 9.28189H144.813L144.631 9.34276L144.448 9.40363L144.388 9.4645L144.266 9.52537L144.145 9.58624L144.084 9.64711L143.962 9.70798L143.902 9.76885L143.841 9.89059L143.78 9.95146L143.719 10.0732L143.658 10.1949L143.598 10.3167L143.537 10.4384V10.621L143.476 10.7428V10.8645L143.415 10.9862V11.108V11.2297V11.4123V11.5949L143.355 11.8384V20.8471L143.415 21.2123V21.4558V21.5775L143.476 21.8819L143.537 22.0645L143.598 22.2471L143.658 22.4297L143.719 22.6123L143.841 22.7949L144.023 22.9775L144.145 23.0993L144.388 23.1602L144.57 23.2819L144.813 23.3428L144.995 23.4036H145.299L145.542 23.4645H145.785H154.354Z" fill="#1A171B"/>
<path fill-rule="evenodd" clip-rule="evenodd" d="M140.012 10.682V9.09944H139.952H139.891H139.83H139.769H139.708L139.648 9.03857H139.587H139.526H139.465H139.405H139.344H139.283H139.222L139.101 8.9777H139.04H138.918H138.858H138.797H138.736H138.675L138.615 8.91683H138.554H138.493H138.432H138.372H138.311H138.25H138.189H138.128H138.068H138.007L137.946 8.85596H137.885H137.825H137.764H137.703H137.642H137.582H137.521H137.46H137.399H137.338H137.278H137.217H137.156H137.095H137.035H136.974H136.913H136.852H136.792H136.548H136.427H136.305H136.184H136.123H135.941H135.698L135.333 8.91683H134.968L134.543 9.03857L134.057 9.09944L133.753 9.22117L133.388 9.28204L133.085 9.40378L132.781 9.58639L132.477 9.769L132.234 9.89074L132.052 10.0125L131.869 10.1342L131.687 10.3168L131.505 10.4386L131.322 10.6212L131.14 10.8647L131.018 10.9864L130.958 11.169L130.836 11.3516L130.775 11.5342L130.654 11.7168L130.593 11.8994L130.532 12.2038L130.472 12.3864L130.411 12.6907V12.9342V13.2386V13.6038L130.472 13.8473L130.532 14.1516L130.593 14.3342L130.715 14.5168L130.775 14.6994L130.897 14.9429L131.079 15.1255L131.201 15.3081L131.383 15.4907L131.565 15.6125L131.748 15.7951L131.93 15.9777L132.234 16.1603L132.598 16.4038L132.963 16.6473L133.267 16.769L133.632 16.9516L134.057 17.1951L134.482 17.3777L134.847 17.5603L135.09 17.682L135.455 17.8647L135.698 17.9864L136.002 18.169L136.245 18.3516L136.427 18.4733L136.67 18.5951L136.852 18.7777L137.035 18.9603L137.217 19.2038L137.399 19.3864L137.46 19.569L137.521 19.6907L137.582 19.8733V20.056V20.2994V20.4212L137.521 20.6038L137.46 20.7864L137.399 20.969L137.338 21.0907L137.217 21.2733L137.095 21.3951L136.913 21.5168L136.67 21.6386L136.548 21.6994L136.366 21.7603L136.123 21.882H135.88L135.698 21.9429L135.455 22.0038H135.212L134.968 22.0647H134.786H134.604H134.178H133.875H133.632H133.449L133.206 22.0038H133.024H132.781L132.538 21.9429H132.355L131.991 21.882L131.687 21.8212L131.262 21.6994L130.775 21.6386V23.1603L130.958 23.2212H131.14L131.383 23.282L131.687 23.3429L132.052 23.4038L132.416 23.4647H132.659H132.781L132.963 23.5255H133.145H133.328H133.449H133.571L133.753 23.5864H133.875H134.118H134.3H134.482H134.665H134.847H135.029H135.212H135.333H135.515H135.698H135.88L136.062 23.5255H136.184H136.305H136.427L136.548 23.4647H136.731H136.913L137.035 23.4038H137.156L137.338 23.3429H137.46L137.582 23.282H137.764L137.825 23.2212H138.007L138.128 23.1603L138.311 23.0994L138.493 23.0386L138.675 22.9777L138.858 22.856L139.04 22.7951L139.101 22.7342L139.222 22.6733L139.405 22.6125L139.526 22.4907L139.708 22.4299L139.83 22.3081L139.952 22.2473L140.073 22.1255L140.134 22.0647L140.255 21.9429L140.377 21.8212L140.438 21.6994L140.559 21.6386L140.681 21.456L140.742 21.3951L140.802 21.2733L140.863 21.1516L140.924 21.0907L140.985 20.969L141.045 20.8473L141.106 20.7255V20.6038L141.167 20.5429L141.228 20.4212V20.2994L141.288 20.1168V19.9951L141.349 19.8733V19.8125V19.6907V19.5081V19.3255L141.41 19.1429L141.349 19.0212V18.8994V18.7777V18.5951V18.4733L141.288 18.3516V18.2299L141.228 18.1081V17.9864L141.167 17.8647L141.106 17.8038L141.045 17.682L140.985 17.5603V17.4386L140.924 17.3777L140.863 17.3168L140.802 17.1951L140.742 17.1342L140.681 17.0125L140.62 16.9516L140.559 16.8907L140.438 16.769L140.377 16.7081L140.255 16.6473L140.195 16.5864L140.134 16.4647L140.012 16.4038L139.891 16.3429L139.83 16.2212L139.708 16.1603L139.648 16.0994L139.526 16.0386L139.405 15.9777L139.283 15.856L139.162 15.7951L139.101 15.7342L138.918 15.6733L138.797 15.6125L138.615 15.4907L138.432 15.369L138.311 15.3081L138.189 15.2473L138.007 15.1255L137.885 15.0647L137.764 15.0038L137.582 14.9429L137.338 14.7603L137.035 14.6386L136.731 14.456L136.488 14.3342L136.305 14.2733L136.123 14.1516L136.002 14.0907L135.88 14.0299L135.698 13.9081L135.515 13.7864L135.394 13.7255L135.272 13.6647L135.151 13.6038L135.09 13.5429L134.908 13.4212L134.786 13.2994L134.665 13.1777L134.543 13.1168L134.422 12.9951L134.361 12.9342L134.239 12.8125L134.178 12.7516L134.118 12.6299L134.057 12.5081V12.4473L133.996 12.3255L133.935 12.2038V12.1429V11.9603V11.8386L133.996 11.7777V11.656L134.057 11.5342V11.4733L134.118 11.3516L134.178 11.2907L134.239 11.2299L134.3 11.1081L134.422 11.0473L134.482 10.9864L134.604 10.9255L134.665 10.8647L134.786 10.8038L134.908 10.7429L135.029 10.682L135.212 10.6212L135.394 10.5603H135.515L135.698 10.4994H135.941L136.062 10.4386H136.184H136.366H136.548H136.67H136.852H137.095H137.278H137.46H137.582L137.825 10.4994H138.128H138.432L138.736 10.5603H138.918L139.405 10.6212L139.83 10.682H140.012Z" fill="#1A171B"/>
<path d="M22.3631 11.0473C22.3631 10.8038 22.3023 10.5603 22.3023 10.3168C11.5462 10.7429 4.61846 7.09076 4.98308 2.22119C4.67923 2.4038 4.43616 2.58641 4.25385 2.76902C2.37 7.88206 10.6954 12.0821 22.3631 11.0473Z" fill="#8B0825"/>
<path d="M7.17077 22.6732C8.20385 23.0993 9.35846 23.3428 10.5738 23.4037C13.2477 22.9776 15.6785 22.1863 18.0485 20.9689C18.17 20.8472 18.2915 20.7254 18.4738 20.6646C14.8277 22.1254 11.06 22.7341 7.17077 22.6732Z" fill="#8B0825"/>
<path d="M21.8162 8.12555C21.6946 7.8212 21.6338 7.51685 21.5123 7.27338C14.0377 6.60381 9.48 4.47338 8.08231 0.699463C7.71769 0.821202 7.35308 0.942941 6.98846 1.06468C7.11 4.96033 13.9769 8.30816 21.8162 8.12555Z" fill="#8B0825"/>
<path d="M20.1146 4.77762C18.0485 2.03849 14.8277 0.212402 11.2423 0.212402C11.1208 0.212402 10.9992 0.212402 10.8777 0.212402C12.5185 2.76892 15.9215 4.10805 20.1146 4.77762Z" fill="#8B0825"/>
<path d="M21.2085 6.60363C21.0262 6.23841 20.7831 5.81232 20.54 5.44711C15.5569 4.6558 11.9715 3.19493 10.0269 0.273193C9.60154 0.334063 9.11539 0.394933 8.69 0.516672C9.66231 3.92537 14.7062 6.0558 21.2085 6.60363Z" fill="#8B0825"/>
<path d="M3.95 20.6645C4.55769 21.2123 5.16539 21.6384 5.89462 22.0645C10.6954 22.2471 14.8885 21.6993 19.6892 19.4471C19.75 19.3862 19.8108 19.2645 19.8715 19.2036C14.6454 21.3949 8.93308 21.5775 3.95 20.6645Z" fill="#8B0825"/>
<path d="M22.2415 9.70803C22.1808 9.34281 22.12 9.03846 21.9985 8.67324C13.6731 8.97759 6.86692 5.50803 6.44154 1.3689C6.19846 1.49064 5.95538 1.61237 5.71231 1.73411C4.55769 6.11672 11.3638 10.195 22.2415 9.70803Z" fill="#8B0825"/>
<path d="M1.88384 5.44727C1.51923 5.99509 1.21538 6.66466 0.911537 7.27335C1.70154 12.9342 12.0931 15.7951 22.3023 13.5429C22.3023 13.3603 22.3631 13.1777 22.3631 12.9342C12.8223 14.456 1.82308 11.5951 1.88384 5.44727Z" fill="#8B0825"/>
<path d="M0.425383 8.67334C0.243076 9.34291 0.121537 10.0733 0.0607681 10.8038C2.73461 15.4299 13.7338 17.2559 22.0592 14.8212C22.12 14.6386 22.12 14.5168 22.1808 14.3342C11.6677 16.1603 2.91692 13.7864 0.425383 8.67334Z" fill="#8B0825"/>
<path d="M22.4238 11.7167C10.9992 12.6906 2.49154 8.67318 3.46385 3.49927C3.22077 3.74275 2.97769 3.98622 2.79538 4.2297C0.607692 10.621 13.1262 14.0906 22.4238 12.3254C22.4238 12.1427 22.4238 12.021 22.4238 11.8384C22.4238 11.8384 22.4238 11.7775 22.4238 11.7167Z" fill="#8B0825"/>
<path d="M1.82308 18.108C2.24846 18.7775 2.67385 19.3254 3.16 19.8732C8.62923 21.0297 14.5846 20.908 20.4792 18.2906C20.6008 18.1689 20.6615 17.9862 20.7831 17.8645C15.6177 19.8732 7.83923 20.2384 1.82308 18.108Z" fill="#8B0825"/>
<path d="M0 11.9602C0 12.7515 0.0607692 13.5428 0.243077 14.2732C5.95538 17.6211 13.8554 18.595 21.6946 15.9167C21.7554 15.795 21.8162 15.6732 21.8162 15.5515C13.3692 17.8037 3.28154 15.9167 0 11.9602Z" fill="#8B0825"/>
<path d="M0.486153 15.2471C0.66846 15.9166 0.972306 16.5862 1.27615 17.2558C8.20384 19.6905 14.7669 19.5688 21.2085 17.0732C21.2692 16.9514 21.2692 16.8905 21.33 16.8297C14.4631 18.8992 6.68461 18.5949 0.486153 15.2471Z" fill="#8B0825"/>
<path fill-rule="evenodd" clip-rule="evenodd" d="M80.1546 23.4645L84.2262 10.4993L84.3477 10.3167L84.53 10.0123L84.7123 9.76884L84.8946 9.58623L85.0769 9.40362L85.2592 9.28188L85.3808 9.16014L85.5023 9.0384H85.6846L85.8669 8.97753L86.0492 8.91666L86.2923 8.85579L86.5354 8.79492H86.7785H87.0215H87.2646H87.5077L87.7508 8.85579L87.9331 8.91666L88.1762 8.97753L88.4192 9.0384L88.6015 9.16014L88.7838 9.28188L88.9661 9.40362L89.1485 9.52536L89.3308 9.6471L89.4523 9.8297L89.5738 9.95144L89.6954 10.1949L89.8777 10.4384L89.9992 10.6819L90.1208 10.9254L90.2423 11.1688L94.3746 23.5254H90.4246L88.9661 19.2645H83.4362L82.0385 23.5254H80.1546V23.4645ZM83.9831 17.5601H88.5408L86.7785 11.9601L86.6569 11.5949L86.5962 11.4732L86.5354 11.3514L86.4746 11.2906L86.4138 11.2297H86.3531H86.2923H86.2315L86.1708 11.2906L86.11 11.3514L86.0492 11.4123L85.9885 11.5341L85.9277 11.6558L83.9831 17.5601Z" fill="#1A171B"/>
<path fill-rule="evenodd" clip-rule="evenodd" d="M41.7485 7.02989V6.84728V6.66467V6.48206L41.6877 6.23858V6.11685V5.99511L41.6269 5.75163L41.5662 5.56902L41.5054 5.38641V5.32554L41.4446 5.2038L41.3231 4.89945L41.2623 4.71685L41.2015 4.59511L41.1408 4.47337L41.08 4.35163L41.0192 4.22989L40.9585 4.10815L40.8977 3.98641L40.8369 3.86467L40.7154 3.74293L40.5938 3.56032L40.4723 3.43858L40.3508 3.31685L40.2292 3.19511L40.1077 2.95163L39.9254 2.76902L39.8038 2.64728L39.6823 2.52554L39.5608 2.4038L39.4392 2.34293L39.3177 2.22119L39.1961 2.09945L39.0746 1.97772H38.8923L38.71 1.85598L38.4669 1.73424L38.2846 1.6125L38.1023 1.49076L37.8592 1.36902L37.6162 1.24728L37.4946 1.18641L37.3123 1.12554H37.13L36.9477 1.06467L36.7654 1.0038L36.5831 0.942933L36.4615 0.882063L36.2792 0.821194L36.1577 0.760324H36.0361L35.8538 0.699455H35.6715H35.55H35.3677H35.2462L35.1246 0.638585H34.9423L34.6385 0.516846H34.4562H34.2738H34.0915H33.9092H33.7877H33.6662H33.5446H33.4838H33.3015H33.0585H32.8154H32.2077H24.1254V22.4299V23.4038V23.4647H28.6831V14.0908H33.9092H34.2131H34.5169H34.6992H34.9423H35.2462H35.4892L35.7323 14.0299L36.0361 13.969L36.2792 13.9081L36.5223 13.8473L36.7046 13.7864L36.8261 13.7255L37.0692 13.6647L37.3123 13.6038L37.6162 13.4821L37.7985 13.4212L37.9808 13.3603L38.1631 13.2995L38.3454 13.2386L38.5277 13.1168L38.71 12.9951L38.8923 12.8734L39.0746 12.7516L39.1961 12.6908L39.3785 12.569L39.5608 12.4473L39.7431 12.3255L39.8646 12.2038L40.0469 12.0821L40.1685 11.9603L40.29 11.8386L40.4115 11.7168L40.4723 11.656L40.5331 11.5342L40.6546 11.4125L40.7761 11.2908L40.8369 11.169L40.9585 10.9864L41.0192 10.8647L41.08 10.7429L41.1408 10.6212L41.2015 10.4995L41.2623 10.3777L41.3231 10.256L41.3838 10.1342L41.4446 10.0125L41.5054 9.89076L41.5662 9.76902L41.6269 9.58641L41.6877 9.4038L41.7485 9.22119L41.8092 9.03858V8.85598L41.87 8.6125V8.42989V8.18641V8.0038V7.82119V7.57772V7.39511L41.7485 7.02989ZM36.6438 7.69945V8.0038V8.24728V8.36902V8.49076V8.67337V8.85598L36.4615 9.03858L36.4008 9.16032L36.34 9.34293L36.2792 9.46467L36.2185 9.58641L36.1577 9.76902L36.0969 9.89076L36.0361 10.0125L35.9754 10.1342L35.9146 10.256L35.8538 10.3777L35.7931 10.4995L35.7323 10.6212L35.6108 10.7429L35.4892 10.8647L35.3677 10.9864L35.2462 11.0473L35.1246 11.1081L35.0031 11.169L34.8815 11.2299L34.76 11.3516L34.6385 11.4734L34.4562 11.5342L34.3346 11.5951L34.1523 11.656L33.97 11.7168L33.7877 11.7777L33.5446 11.8386L33.2408 11.8995L32.9369 11.9603L32.6331 12.0821L32.3292 12.1429L32.0861 12.2038H31.9038H31.6H31.3569H31.1138H28.6223V2.34293H30.81H30.8708H30.9923H31.0531H31.1138H31.1746H31.2354H31.2962H31.3569H31.4177H31.4785H31.5392H31.6H31.6608H31.7215H31.7823H31.8431H31.9038H31.9646H32.0254H32.1469H32.2685H32.3292H32.39H32.4508H32.5115H32.6331H32.6938H32.7546H32.8154H32.8761H32.9369H32.9977H33.0585H33.1192H33.18H33.2408H33.3015H33.3623H33.4231H33.4838H33.5446L34.0308 2.95163H34.0915H34.1523L34.2131 3.0125L34.3346 3.07337L34.3954 3.13424L34.4562 3.19511L34.5169 3.25598H34.6385L34.76 3.31685L34.8208 3.37772L34.8815 3.43858L34.9423 3.49945L35.0031 3.56032H35.0638L35.1246 3.62119L35.1854 3.68206L35.2462 3.74293L35.3069 3.8038L35.4285 3.92554L35.55 4.04728L35.6715 4.16902L35.7931 4.29076L35.8538 4.47337L35.9754 4.65598L36.0969 4.83858L36.2185 5.02119L36.2792 5.2038L36.34 5.32554L36.4008 5.50815L36.4615 5.69076L36.5223 5.87337L36.5831 6.05598L36.6438 6.29945L36.7046 6.48206V6.66467V6.90815V7.09076V7.33424V7.69945H36.6438Z" fill="#1A171B"/>
</svg>
